# xmcd
#
# Track frame offsets: 
#        150
#        21476
#        43381
#        64708
#
# Disc length: 1152 seconds
#
# Revision: 0
# Processed by: cddbd v1.5.2PL0 Copyright (c) Steve Scherf et al.
# Submitted via: ExactAudioCopy v1.3
#
DISCID=36047e04
DTITLE=Hiro Shimono - Soul Flag
DYEAR=2019
DGENRE=Anime
TTITLE0=Soul Flag
TTITLE1=ストーリー
TTITLE2=Soul Flag(instrumental)
TTITLE3=ストーリー(instrumental)
EXTD=
EXTT0=
EXTT1=
EXTT2=
EXTT3=
PLAYORDER=
